<svg width="41" height="41" viewBox="0 0 41 41" fill="none" xmlns="http://www.w3.org/2000/svg">
<path d="M36.05 22.0167C36.2 24.6 35.0166 27.0833 32.9 28.6L34.1833 31.0833C34.5666 31.8333 34.6166 32.7167 34.2833 33.5C33.9666 34.2833 33.3166 34.9 32.5166 35.1667L31.2 35.5833C30.6517 35.7673 30.06 35.778 29.5054 35.614C28.9508 35.45 28.4601 35.1192 28.1 34.6667L24.5666 30.5C23.0833 30.25 21.6833 29.6167 20.5 28.6667C19.6666 28.9167 18.8333 29.05 18 29.05C16.5333 29.05 15.0666 28.6 13.8333 27.7333C12.95 28 12.05 28.1167 11.1333 28.1C9.81664 28.1167 8.51664 27.85 7.29997 27.35C6.12828 26.8283 5.12708 25.9873 4.41087 24.9233C3.69465 23.8593 3.29235 22.6152 3.24997 21.3333C3.11664 20.1333 3.31664 18.9167 3.83331 17.8167C3.34997 16.5667 3.29997 15.2 3.71664 13.9333C4.33331 12.35 5.49997 11.0333 6.94997 10.2C7.91664 7.38333 10.6333 5.5 13.6166 5.7C16.2833 3.2 20.3666 2.93333 23.3333 5.08333C24.0333 4.9 24.7666 4.8 25.5 4.8C27.7666 4.75 29.9166 5.75 31.3333 7.53333C34.7333 8.41666 37.1666 11.45 37.3 14.9833C37.3833 16.8333 36.8833 18.65 35.8666 20.2C35.9833 20.8 36.05 21.4 36.05 22.0167ZM27.7166 19.6667C28.6666 19.7833 29.4166 20.5 29.4166 21.45C29.4166 21.892 29.241 22.3159 28.9285 22.6285C28.6159 22.9411 28.192 23.1167 27.75 23.1167H26.7C26.1666 24.6167 25.2333 25.9333 24 26.9333C24.4166 27.0833 24.85 27.1667 25.2833 27.2833C33.8333 27.1667 32.8333 21.95 32.8333 21.8667C32.8118 21.2997 32.6788 20.7424 32.4418 20.2269C32.2048 19.7114 31.8684 19.2476 31.452 18.8622C31.0356 18.4767 30.5473 18.1771 30.015 17.9806C29.4828 17.784 28.9169 17.6943 28.35 17.7167C27.9079 17.7167 27.484 17.5411 27.1715 17.2285C26.8589 16.9159 26.6833 16.492 26.6833 16.05C26.6833 15.608 26.8589 15.184 27.1715 14.8715C27.484 14.5589 27.9079 14.3833 28.35 14.3833C30.4 14.4333 32.3666 15.2 33.9 16.55C33.9833 16.0667 34.0333 15.5667 34.0333 15.0667C33.9333 13 33 11.2 29.25 10.85C27.1666 5.91666 21.9166 8.65 21.9166 10.1833C21.8666 10.5667 22.2666 11.3833 22.3333 11.4333C22.7753 11.4333 23.1993 11.6089 23.5118 11.9215C23.8244 12.234 24 12.658 24 13.1C24 14.0167 23.25 14.7667 22.3333 14.7667C21.45 14.7333 20.6166 14.4 19.95 13.8333C19.15 14.35 18.2333 14.6667 17.2833 14.7667C16.3333 14.85 15.55 14.1833 15.5 13.2667C15.4698 13.049 15.4842 12.8275 15.5425 12.6157C15.6008 12.4038 15.7016 12.206 15.8389 12.0345C15.9761 11.8629 16.1469 11.7211 16.3408 11.6177C16.5347 11.5144 16.7477 11.4516 16.9666 11.4333C17.2333 11.4 18.5333 11.2 18.5333 10.15C18.5333 9.05 18.95 8 19.6666 7.16666C18.1333 6.75 16.4833 7.3 14.8166 9.31666C11.75 8.83333 10.5 9.25 9.58331 12.5C7.99997 13.2833 7.16664 13.8333 6.79997 15.5C8.59997 15.1333 10.45 15.2833 12.1666 15.9167C13 16.2333 13.4666 17.1667 13.15 18.0667C12.8333 18.9333 11.8666 19.3667 11 19.05C9.78331 18.5167 8.41664 18.4833 7.16664 18.95C6.63331 19.4 6.63331 20.3333 6.63331 21.0667C6.63331 22.3 7.24997 23.45 8.29997 24.1167C9.18331 24.5667 10.1666 24.8 11.15 24.7833C10.9 24.35 10.6833 23.9 10.5 23.4333C10.3688 23.0051 10.4087 22.5427 10.6115 22.1434C10.8142 21.744 11.1639 21.4389 11.587 21.2921C12.0101 21.1453 12.4737 21.1683 12.8802 21.3563C13.2867 21.5442 13.6045 21.8825 13.7666 22.3C14.4333 24.2 16.1333 25.5 18.1333 25.7167C20.4166 25.6 22.45 24.25 23.45 22.1667C23.8333 19.8667 25.6833 19.6667 27.7166 19.6667ZM31.05 32.1167L30.0166 29.95L28.8333 30.2167L30.5 32.3L31.05 32.1167ZM23.3 17.7667C23.3145 17.3409 23.1654 16.9257 22.8833 16.6065C22.6012 16.2872 22.2076 16.0881 21.7833 16.05C20.6 15.9833 19.45 16.3833 18.5666 17.1667C17.6166 18.1333 17.1166 19.4667 17.1666 20.8167C17.1666 21.2587 17.3422 21.6826 17.6548 21.9952C17.9674 22.3077 18.3913 22.4833 18.8333 22.4833C19.7833 22.4833 20.5 21.7333 20.5 20.8167C20.5 20.3667 20.6166 19.9167 20.8833 19.55C21.0833 19.3833 21.3333 19.3 21.6 19.3C22.5166 19.35 23.3 18.6667 23.3 17.7667Z" fill="#14B8A6"/>
</svg>
