<svg width="307" height="307" viewBox="0 0 307 307" fill="none" xmlns="http://www.w3.org/2000/svg">
<path d="M153.5 0C69.075 0 0 69.075 0 153.5C0 237.925 69.075 307 153.5 307C237.925 307 307 237.925 307 153.5C307 69.075 237.925 0 153.5 0ZM253.275 101.694C260.95 101.694 266.706 107.45 274.381 107.45C268.625 115.125 243.681 115.125 236.006 105.531C241.763 103.612 245.6 101.694 253.275 101.694ZM19.1875 153.5C19.1875 145.825 19.1875 138.15 21.1063 128.556C23.025 128.556 24.9437 130.475 26.8625 130.475C26.8625 130.475 28.7812 132.394 28.7812 134.312C28.7812 140.069 34.5375 143.906 38.375 143.906C53.725 145.825 59.4812 159.256 72.9125 163.094C76.75 165.013 74.8312 168.85 72.9125 172.688C61.4 188.038 70.9937 199.55 80.5875 209.144C90.1812 216.819 90.1813 224.494 92.1 236.006C92.1 249.438 94.0187 264.788 99.775 278.219C51.8062 255.194 19.1875 209.144 19.1875 153.5ZM153.5 287.812C140.069 287.812 124.719 285.894 113.206 282.056C111.288 278.219 111.288 274.381 113.206 270.544C120.881 255.194 128.556 241.762 138.15 228.331C141.987 224.494 145.825 220.656 145.825 214.9C145.825 211.062 147.744 205.306 149.663 201.469C155.419 191.875 153.5 186.119 145.825 184.2C130.475 180.363 122.8 166.931 111.288 161.175C99.775 155.419 88.2625 151.581 78.6687 157.337C74.8312 159.256 69.075 161.175 69.075 155.419C69.075 147.744 59.4813 141.988 61.4 134.312C59.4813 134.312 57.5625 134.312 55.6438 136.231C53.725 138.15 51.8063 140.069 47.9688 138.15C44.1312 134.312 46.05 130.475 46.05 126.637C47.9688 122.8 49.8875 120.881 53.725 118.962C61.4 117.044 69.075 117.044 72.9125 126.637C78.6687 109.369 90.1813 99.775 101.694 92.1C101.694 92.1 117.044 78.6687 118.962 78.6687C120.881 78.6687 122.8 82.5063 126.637 84.425C130.475 84.425 132.394 84.425 132.394 80.5875C134.313 70.9937 128.556 59.4813 120.881 57.5625C120.881 55.6437 122.8 55.6438 122.8 55.6438C128.556 53.725 136.231 49.8875 134.312 44.1312C134.312 36.4562 126.637 32.6188 118.962 32.6188C115.125 32.6188 111.287 32.6187 107.45 34.5375C99.775 38.375 90.1812 42.2125 78.6687 42.2125C99.775 26.8625 126.638 19.1875 153.5 19.1875H168.85C157.338 21.1063 145.825 24.9437 138.15 28.7812C149.662 30.7 151.581 36.4563 147.744 46.05C145.825 49.8875 147.744 53.725 151.581 55.6438C155.419 57.5625 159.256 57.5625 161.175 53.725C165.012 47.9687 172.688 46.05 178.444 44.1312C186.119 42.2125 191.875 38.375 197.631 30.7C197.631 28.7813 199.55 28.7812 201.469 26.8625C212.981 30.7 224.494 38.375 236.006 46.05C234.088 46.05 234.088 47.9688 232.169 47.9688C228.331 51.8063 222.575 53.725 228.331 61.4C230.25 65.2375 228.331 67.1562 226.413 69.075C222.575 70.9937 220.656 69.075 218.737 67.1562C216.819 65.2375 216.819 61.4 211.062 61.4C209.144 65.2375 203.388 67.1562 203.388 72.9125C212.981 72.9125 211.063 80.5875 212.981 86.3438C201.469 88.2625 197.631 94.0188 203.388 103.613C205.306 107.45 201.469 109.369 199.55 111.288C191.875 122.8 184.2 130.475 184.2 143.906C184.2 157.337 193.794 170.769 209.144 168.85C226.412 166.931 226.413 166.931 232.169 182.281C232.169 184.2 234.087 186.119 234.087 188.038C236.006 191.875 237.925 195.712 236.006 199.55C230.25 214.9 237.925 226.412 243.681 237.925C245.6 241.762 247.519 243.681 249.438 245.6C224.494 272.463 191.875 287.812 153.5 287.812Z" fill="#14B8A6" fill-opacity="0.2"/>
</svg>
