<svg width="41" height="41" viewBox="0 0 41 41" fill="none" xmlns="http://www.w3.org/2000/svg">
<path d="M11.6425 31.125L16.9637 25.8038L15.1962 24.0363L9.87498 29.3575L8.88373 28.3663C8.64932 28.1319 8.33143 28.0003 7.99998 28.0003C7.66852 28.0003 7.35064 28.1319 7.11623 28.3663L2.11623 33.3663C1.88189 33.6007 1.75024 33.9185 1.75024 34.25C1.75024 34.5815 1.88189 34.8993 2.11623 35.1338L5.86623 38.8838C6.10064 39.1181 6.41852 39.2497 6.74998 39.2497C7.08143 39.2497 7.39932 39.1181 7.63373 38.8838L12.6337 33.8838C12.8681 33.6493 12.9997 33.3315 12.9997 33C12.9997 32.6685 12.8681 32.3507 12.6337 32.1163L11.6425 31.125ZM6.74998 36.2325L4.76748 34.25L7.99998 31.0175L9.98248 33L6.74998 36.2325Z" fill="#14B8A6"/>
<path d="M30.5 38C28.5116 37.9977 26.6053 37.2068 25.1992 35.8007C23.7932 34.3947 23.0023 32.4884 23 30.5C22.9999 29.8465 23.0882 29.1961 23.2625 28.5662L12.435 17.7375C11.8042 17.9089 11.1537 17.9972 10.5 18C9.27801 18.0049 8.07351 17.7099 6.99207 17.141C5.91063 16.572 4.98528 15.7464 4.29715 14.7366C3.60902 13.7268 3.17913 12.5636 3.04515 11.349C2.91118 10.1344 3.07723 8.9055 3.52873 7.76999L4.22623 5.99374L8.36623 10.1337C8.60419 10.3613 8.92074 10.4883 9.24998 10.4883C9.57922 10.4883 9.89577 10.3613 10.1337 10.1337C10.3681 9.89934 10.4997 9.58145 10.4997 9.24999C10.4997 8.91854 10.3681 8.60065 10.1337 8.36625L5.99123 4.22374L7.76998 3.52749C8.90559 3.07627 10.1345 2.91048 11.3491 3.04466C12.5637 3.17883 13.7268 3.60887 14.7366 4.29708C15.7463 4.98529 16.5718 5.91067 17.1408 6.99211C17.7098 8.07355 18.0048 9.27803 18 10.5C18 11.1535 17.9117 11.8039 17.7375 12.4337L28.5662 23.2625C29.1966 23.0911 29.8467 23.0029 30.5 23C31.7219 22.9951 32.9264 23.2901 34.0079 23.859C35.0893 24.428 36.0147 25.2536 36.7028 26.2634C37.3909 27.2732 37.8208 28.4363 37.9548 29.651C38.0888 30.8656 37.9227 32.0945 37.4712 33.23L36.775 35.0062L32.6337 30.8662C32.3958 30.6391 32.0795 30.5123 31.7506 30.5123C31.4217 30.5123 31.1054 30.6391 30.8675 30.8662C30.633 31.1005 30.5011 31.4183 30.5009 31.7497C30.5006 32.0812 30.6321 32.3992 30.8662 32.6337L35.0075 36.775L33.23 37.4725C32.3608 37.8169 31.4349 37.9959 30.5 38ZM13.0787 14.845L26.1537 27.9225L25.855 28.6837C25.5622 29.4156 25.4478 30.2066 25.5211 30.9914C25.5944 31.7763 25.8534 32.5324 26.2767 33.1973C26.7 33.8623 27.2754 34.417 27.9554 34.8156C28.6354 35.2143 29.4005 35.4454 30.1875 35.49L29.0987 34.4025C28.7504 34.0543 28.4742 33.6408 28.2857 33.1858C28.0972 32.7308 28.0002 32.2431 28.0002 31.7506C28.0002 31.2581 28.0972 30.7704 28.2857 30.3154C28.4742 29.8604 28.7504 29.447 29.0987 29.0987C29.8128 28.416 30.7627 28.035 31.7506 28.035C32.7385 28.035 33.6884 28.416 34.4025 29.0987L35.49 30.1875C35.4452 29.4005 35.2139 28.6354 34.8151 27.9554C34.4163 27.2754 33.8615 26.7 33.1965 26.2768C32.5314 25.8535 31.7752 25.5945 30.9904 25.5212C30.2055 25.4479 29.4144 25.5623 28.6825 25.855L27.9212 26.1537L14.8462 13.0787L15.1462 12.3162C15.4387 11.5843 15.5529 10.7932 15.4794 10.0084C15.4059 9.22362 15.1467 8.46755 14.7234 7.80265C14.3 7.13775 13.7246 6.58309 13.0445 6.18445C12.3645 5.78581 11.5995 5.55463 10.8125 5.50999L11.9 6.59749C12.2483 6.94572 12.5245 7.35915 12.713 7.81416C12.9015 8.26917 12.9986 8.75686 12.9986 9.24937C12.9986 9.74188 12.9015 10.2296 12.713 10.6846C12.5245 11.1396 12.2483 11.553 11.9 11.9012C11.1859 12.5839 10.236 12.9649 9.2481 12.9649C8.26018 12.9649 7.31031 12.5839 6.59623 11.9012L5.50873 10.8125C5.55328 11.5995 5.78443 12.3646 6.18307 13.0446C6.58172 13.7246 7.13643 14.3 7.80139 14.7233C8.46634 15.1465 9.22246 15.4055 10.0073 15.4789C10.7921 15.5522 11.5831 15.4378 12.315 15.145L13.0787 14.845Z" fill="#14B8A6"/>
<path d="M36.9037 4.06251C36.1897 3.37981 35.2398 2.99881 34.2519 2.99881C33.264 2.99881 32.3141 3.37981 31.6 4.06251L22.25 13.4125L24.0175 15.18L33.3675 5.83001C33.6056 5.60276 33.9221 5.47596 34.2512 5.47596C34.5804 5.47596 34.8969 5.60276 35.135 5.83001C35.3693 6.06442 35.501 6.38231 35.501 6.71376C35.501 7.04522 35.3693 7.3631 35.135 7.59751L25.785 16.9475L27.5525 18.7163L36.9025 9.36626C37.605 8.66249 37.9995 7.70875 37.9995 6.71439C37.9995 5.72002 37.6062 4.76628 36.9037 4.06251Z" fill="#14B8A6"/>
</svg>
