<svg width="19" height="16" viewBox="0 0 19 16" fill="none" xmlns="http://www.w3.org/2000/svg">
<path d="M3.5 2.66671L9.5 1.33337L15.5 2.66671V8.70671C15.4994 9.6964 15.189 10.6664 14.6036 11.5082C14.0181 12.3501 13.1807 13.0305 12.185 13.4734L9.5 14.6667L6.815 13.4734C5.8193 13.0305 4.98188 12.3501 4.39643 11.5082C3.81098 10.6664 3.50059 9.6964 3.5 8.70671V2.66671Z" fill="black"/>
<path d="M9.49985 12C9.20149 12 8.91534 11.8947 8.70436 11.7071C8.49338 11.5196 8.37485 11.2652 8.37485 11C8.37485 10.7348 8.49338 10.4804 8.70436 10.2929C8.91534 10.1054 9.20149 10 9.49985 10C9.79822 10 10.0844 10.1054 10.2953 10.2929C10.5063 10.4804 10.6249 10.7348 10.6249 11C10.6249 11.2652 10.5063 11.5196 10.2953 11.7071C10.0844 11.8947 9.79822 12 9.49985 12ZM10.2499 8.06668C10.1524 8.86668 8.83985 8.86668 8.74985 8.06668L8.37485 4.73334C8.36434 4.64036 8.37594 4.54645 8.40889 4.4577C8.44184 4.36896 8.49542 4.28737 8.56614 4.21822C8.63686 4.14907 8.72315 4.09391 8.8194 4.05632C8.91565 4.01872 9.01972 3.99954 9.12485 4.00001H9.87485C9.97999 3.99954 10.0841 4.01872 10.1803 4.05632C10.2766 4.09391 10.3628 4.14907 10.4336 4.21822C10.5043 4.28737 10.5579 4.36896 10.5908 4.4577C10.6238 4.54645 10.6354 4.64036 10.6249 4.73334L10.2499 8.06668Z" fill="white"/>
</svg>
