<svg width="15" height="14" viewBox="0 0 15 14" fill="none" xmlns="http://www.w3.org/2000/svg">
<path d="M11.0002 8.59833C10.9801 7.97949 10.7149 7.39399 10.2631 6.97063C9.81132 6.54727 9.20983 6.32072 8.591 6.34083C7.97216 6.36095 7.38665 6.62607 6.96329 7.07787C6.53993 7.52968 6.31338 8.13116 6.3335 8.75H2.25016C1.94074 8.75 1.644 8.62708 1.4252 8.40829C1.20641 8.1895 1.0835 7.89275 1.0835 7.58333V2.91667C1.0835 2.275 1.6085 1.75 2.25016 1.75H10.4168C10.7262 1.75 11.023 1.87292 11.2418 2.09171C11.4606 2.3105 11.5835 2.60725 11.5835 2.91667V7.58333C11.5843 7.78891 11.5308 7.99106 11.4284 8.1693C11.3259 8.34754 11.1782 8.49554 11.0002 8.59833ZM6.3335 7C6.79762 7 7.24274 6.81563 7.57093 6.48744C7.89912 6.15925 8.0835 5.71413 8.0835 5.25C8.0835 4.78587 7.89912 4.34075 7.57093 4.01256C7.24274 3.68437 6.79762 3.5 6.3335 3.5C5.86937 3.5 5.42425 3.68437 5.09606 4.01256C4.76787 4.34075 4.5835 4.78587 4.5835 5.25C4.5835 5.71413 4.76787 6.15925 5.09606 6.48744C5.42425 6.81563 5.86937 7 6.3335 7Z" fill="black"/>
<path d="M4.58317 5.25H12.7498C13.0593 5.25 13.356 5.37292 13.5748 5.59171C13.7936 5.8105 13.9165 6.10725 13.9165 6.41667V11.0833C13.9165 11.3928 13.7936 11.6895 13.5748 11.9083C13.356 12.1271 13.0593 12.25 12.7498 12.25H4.58317C4.27375 12.25 3.97701 12.1271 3.75821 11.9083C3.53942 11.6895 3.4165 11.3928 3.4165 11.0833V6.41667C3.4165 5.775 3.9415 5.25 4.58317 5.25ZM8.6665 10.5C9.13063 10.5 9.57575 10.3156 9.90394 9.98744C10.2321 9.65925 10.4165 9.21413 10.4165 8.75C10.4165 8.28587 10.2321 7.84075 9.90394 7.51256C9.57575 7.18437 9.13063 7 8.6665 7C8.20237 7 7.75726 7.18437 7.42907 7.51256C7.10088 7.84075 6.9165 8.28587 6.9165 8.75C6.9165 9.21413 7.10088 9.65925 7.42907 9.98744C7.75726 10.3156 8.20237 10.5 8.6665 10.5Z" fill="black"/>
</svg>
