<svg width="41" height="40" viewBox="0 0 41 40" fill="none" xmlns="http://www.w3.org/2000/svg">
<path d="M22.1667 35H7.16671C6.28265 35 5.43481 34.6488 4.80968 34.0237C4.18456 33.3986 3.83337 32.5507 3.83337 31.6667V8.33333C3.83337 7.44928 4.18456 6.60143 4.80968 5.97631C5.43481 5.35119 6.28265 5 7.16671 5H33.8334C34.7174 5 35.5653 5.35119 36.1904 5.97631C36.8155 6.60143 37.1667 7.44928 37.1667 8.33333V20" stroke="#fadb5f" stroke-width="3" stroke-linecap="round"/>
<path d="M3.83337 11.6667H37.1667M8.83337 8.35L8.85004 8.33167M13.8334 8.35L13.85 8.33167M18.8334 8.35L18.85 8.33167M32.1534 23.5417L36.4134 24.6233C36.8567 24.7367 37.1684 25.14 37.155 25.5967C36.8684 35.1933 31.3334 36.6667 31.3334 36.6667C31.3334 36.6667 25.7984 35.1933 25.5117 25.5967C25.5072 25.3745 25.578 25.1573 25.7127 24.9806C25.8474 24.8038 26.038 24.6779 26.2534 24.6233L30.5134 23.5417C31.0517 23.405 31.615 23.405 32.1534 23.5417Z" stroke="#fadb5f" stroke-width="3" stroke-linecap="round" stroke-linejoin="round"/>
</svg>
