<svg width="16" height="16" viewBox="0 0 16 16" fill="none" xmlns="http://www.w3.org/2000/svg">
<path d="M8.00016 14.6666C11.6821 14.6666 14.6668 11.6819 14.6668 7.99998C14.6668 4.31808 11.6821 1.33331 8.00016 1.33331C4.31826 1.33331 1.3335 4.31808 1.3335 7.99998C1.3335 11.6819 4.31826 14.6666 8.00016 14.6666Z" fill="black"/>
<path d="M8.66683 7.72667L10.8002 9.86C10.9103 9.98675 10.9686 10.1504 10.9634 10.3183C10.9581 10.4861 10.8897 10.6458 10.7718 10.7654C10.6539 10.885 10.4951 10.9557 10.3274 10.9634C10.1596 10.971 9.99513 10.915 9.86683 10.8067L7.5335 8.47333C7.4705 8.41159 7.42039 8.33796 7.38606 8.25671C7.35173 8.17546 7.33386 8.0882 7.3335 8V4.66667C7.3335 4.48986 7.40373 4.32029 7.52876 4.19526C7.65378 4.07024 7.82335 4 8.00016 4C8.17697 4 8.34654 4.07024 8.47157 4.19526C8.59659 4.32029 8.66683 4.48986 8.66683 4.66667V7.72667Z" fill="white"/>
</svg>
