<svg width="15" height="16" viewBox="0 0 15 16" fill="none" xmlns="http://www.w3.org/2000/svg">
<path d="M5.73135 10.78C5.67532 10.8498 5.60637 10.9065 5.52883 10.9465C5.45129 10.9865 5.36683 11.009 5.28076 11.0125C5.19468 11.0161 5.10885 11.0006 5.02865 10.9671C4.94844 10.9336 4.8756 10.8827 4.81469 10.8178C4.75378 10.7528 4.70612 10.6751 4.6747 10.5895C4.64328 10.504 4.62877 10.4124 4.6321 10.3206C4.63542 10.2288 4.6565 10.1387 4.69402 10.056C4.73153 9.9733 4.78467 9.89976 4.8501 9.83999C5.55322 9.09092 6.50634 8.67018 7.5001 8.67018C8.49385 8.67018 9.44697 9.09092 10.1501 9.83999C10.2525 9.96753 10.306 10.1316 10.2999 10.2994C10.2938 10.4671 10.2286 10.6263 10.1173 10.745C10.006 10.8638 9.8568 10.9333 9.69951 10.9398C9.54221 10.9463 9.38841 10.8892 9.26885 10.78C9.03666 10.5321 8.76094 10.3354 8.45745 10.2012C8.15395 10.067 7.82864 9.9979 7.5001 9.9979C7.17156 9.9979 6.84624 10.067 6.54275 10.2012C6.23925 10.3354 5.96353 10.5321 5.73135 10.78ZM3.9626 8.89333C3.84303 9.00254 3.68924 9.05961 3.53194 9.05313C3.37464 9.04665 3.22543 8.9771 3.11412 8.85837C3.00281 8.73964 2.9376 8.58048 2.93153 8.41269C2.92545 8.24491 2.97896 8.08086 3.08135 7.95333C4.2534 6.70352 5.84282 6.00142 7.5001 6.00142C9.15737 6.00142 10.7468 6.70352 11.9188 7.95333C12.0212 8.08086 12.0747 8.24491 12.0687 8.41269C12.0626 8.58048 11.9974 8.73964 11.8861 8.85837C11.7748 8.9771 11.6256 9.04665 11.4683 9.05313C11.311 9.05961 11.1572 9.00254 11.0376 8.89333C10.5732 8.39745 10.0218 8.00407 9.4148 7.73567C8.80781 7.46728 8.15718 7.32913 7.5001 7.32913C6.84302 7.32913 6.19239 7.46728 5.5854 7.73567C4.97841 8.00407 4.42696 8.39745 3.9626 8.89333ZM2.19385 7.00666C2.14012 7.08307 2.07163 7.14628 1.99301 7.19199C1.91439 7.23771 1.82747 7.26488 1.73815 7.27165C1.64883 7.27842 1.55919 7.26464 1.4753 7.23124C1.39141 7.19784 1.31522 7.1456 1.25191 7.07806C1.18859 7.01052 1.13962 6.92926 1.1083 6.83978C1.07699 6.75029 1.06407 6.65467 1.07042 6.5594C1.07677 6.46413 1.10223 6.37142 1.1451 6.28756C1.18796 6.20369 1.24721 6.13063 1.31885 6.07333C2.95956 4.32482 5.18395 3.34265 7.50322 3.34265C9.82249 3.34265 12.0469 4.32482 13.6876 6.07333C13.7564 6.13202 13.8127 6.20557 13.853 6.28913C13.8933 6.3727 13.9165 6.4644 13.9212 6.55822C13.926 6.65204 13.912 6.74586 13.8804 6.83354C13.8487 6.92121 13.8 7.00076 13.7375 7.06696C13.675 7.13316 13.6001 7.18452 13.5177 7.21767C13.4352 7.25082 13.3472 7.26501 13.2593 7.25932C13.1713 7.25363 13.0855 7.22817 13.0075 7.18463C12.9294 7.14109 12.8609 7.08044 12.8063 7.00666C12.1098 6.26285 11.2826 5.67278 10.3721 5.27018C9.46166 4.86759 8.48571 4.66037 7.5001 4.66037C6.51448 4.66037 5.53853 4.86759 4.62804 5.27018C3.71756 5.67278 2.8904 6.26285 2.19385 7.00666Z" fill="black"/>
<path d="M7.5 13.6667C7.74864 13.6667 7.9871 13.5613 8.16291 13.3738C8.33873 13.1863 8.4375 12.9319 8.4375 12.6667C8.4375 12.4015 8.33873 12.1471 8.16291 11.9596C7.9871 11.772 7.74864 11.6667 7.5 11.6667C7.25136 11.6667 7.0129 11.772 6.83709 11.9596C6.66127 12.1471 6.5625 12.4015 6.5625 12.6667C6.5625 12.9319 6.66127 13.1863 6.83709 13.3738C7.0129 13.5613 7.25136 13.6667 7.5 13.6667Z" fill="black"/>
</svg>
