<svg width="20" height="20" viewBox="0 0 20 20" fill="none" xmlns="http://www.w3.org/2000/svg">
    <path d="M13.6 12.4166L14.5166 13.3333C14.85 13.3166 15.2083 13.4416 15.4666 13.7L17.9666 16.2C18.1874 16.4369 18.3076 16.7503 18.3019 17.0742C18.2962 17.398 18.165 17.707 17.936 17.936C17.707 18.165 17.398 18.2962 17.0742 18.3019C16.7503 18.3077 16.4369 18.1874 16.2 17.9666L13.7 15.4666C13.5756 15.3429 13.4787 15.1944 13.4155 15.0307C13.3523 14.867 13.3243 14.6919 13.3333 14.5166L12.4166 13.6C11.0772 14.6405 9.39159 15.1313 7.70298 14.9726C6.01436 14.8139 4.44973 14.0175 3.32765 12.7457C2.20558 11.4739 1.61044 9.8222 1.66341 8.12697C1.71638 6.43174 2.41349 4.82044 3.61278 3.62114C4.81207 2.42185 6.42338 1.72475 8.11861 1.67177C9.81383 1.6188 11.4655 2.21394 12.7374 3.33602C14.0092 4.45809 14.8055 6.02273 14.9642 7.71134C15.123 9.39995 14.6321 11.0856 13.5916 12.425L13.6 12.4166ZM8.33329 13.3333C9.65937 13.3333 10.9311 12.8065 11.8688 11.8688C12.8065 10.9312 13.3333 9.6594 13.3333 8.33331C13.3333 7.00723 12.8065 5.73546 11.8688 4.79778C10.9311 3.8601 9.65937 3.33331 8.33329 3.33331C7.0072 3.33331 5.73543 3.8601 4.79775 4.79778C3.86007 5.73546 3.33329 7.00723 3.33329 8.33331C3.33329 9.6594 3.86007 10.9312 4.79775 11.8688C5.73543 12.8065 7.0072 13.3333 8.33329 13.3333Z" fill="#003E6B"/>
</svg>
