<svg width="14" height="14" viewBox="0 0 14 14" fill="none" xmlns="http://www.w3.org/2000/svg">
<path d="M6.99978 0.583313V4.08331C6.53565 4.08331 6.09053 4.26769 5.76234 4.59588C5.43415 4.92406 5.24978 5.36918 5.24978 5.83331C5.24978 6.29744 5.43415 6.74256 5.76234 7.07075C6.09053 7.39894 6.53565 7.58331 6.99978 7.58331V13.0141C6.84675 13.0135 6.7001 12.9527 6.59145 12.845L3.28978 9.54331C2.55648 8.80911 2.05721 7.87406 1.85502 6.85627C1.65283 5.83847 1.75679 4.78359 2.15377 3.82485C2.55075 2.86611 3.22294 2.04651 4.08545 1.46957C4.94796 0.892627 5.9621 0.584226 6.99978 0.583313Z" fill="black"/>
<path d="M7 0.583313C8.03768 0.584226 9.05182 0.892627 9.91433 1.46957C10.7768 2.04651 11.449 2.86611 11.846 3.82485C12.243 4.78359 12.3469 5.83847 12.1448 6.85627C11.9426 7.87406 11.4433 8.80911 10.71 9.54331L7.41417 12.845C7.36014 12.9001 7.29572 12.9439 7.22462 12.974C7.15353 13.004 7.07718 13.0197 7 13.02V7.58331C7.46413 7.58331 7.90925 7.39894 8.23744 7.07075C8.56563 6.74256 8.75 6.29744 8.75 5.83331C8.75 5.36918 8.56563 4.92406 8.23744 4.59588C7.90925 4.26769 7.46413 4.08331 7 4.08331V0.583313Z" fill="black"/>
</svg>
