<svg width="41" height="41" viewBox="0 0 41 41" fill="none" xmlns="http://www.w3.org/2000/svg">
<path d="M3 10.5H38V35.5H3V10.5ZM20.5 16.75C22.0471 16.75 23.5308 17.4085 24.6248 18.5806C25.7188 19.7527 26.3333 21.3424 26.3333 23C26.3333 24.6576 25.7188 26.2473 24.6248 27.4194C23.5308 28.5915 22.0471 29.25 20.5 29.25C18.9529 29.25 17.4692 28.5915 16.3752 27.4194C15.2812 26.2473 14.6667 24.6576 14.6667 23C14.6667 21.3424 15.2812 19.7527 16.3752 18.5806C17.4692 17.4085 18.9529 16.75 20.5 16.75ZM10.7778 14.6667C10.7778 15.7717 10.3681 16.8315 9.63875 17.6129C8.90944 18.3943 7.92029 18.8333 6.88889 18.8333V27.1667C7.92029 27.1667 8.90944 27.6057 9.63875 28.3871C10.3681 29.1685 10.7778 30.2283 10.7778 31.3333H30.2222C30.2222 30.2283 30.6319 29.1685 31.3613 28.3871C32.0906 27.6057 33.0797 27.1667 34.1111 27.1667V18.8333C33.0797 18.8333 32.0906 18.3943 31.3613 17.6129C30.6319 16.8315 30.2222 15.7717 30.2222 14.6667H10.7778Z" fill="#fadb5f"/>
</svg>
