<svg width="41" height="41" viewBox="0 0 41 41" fill="none" xmlns="http://www.w3.org/2000/svg">
<path d="M20.5 3.83334C11.31 3.83334 3.83337 11.31 3.83337 20.5C3.83337 29.69 11.31 37.1667 20.5 37.1667C29.69 37.1667 37.1667 29.69 37.1667 20.5C37.1667 11.31 29.69 3.83334 20.5 3.83334ZM7.16671 20.5C7.16671 19.0017 7.42671 17.5633 7.88504 16.2183L10.5 18.8333L13.8334 22.1667V25.5L17.1667 28.8333L18.8334 30.5V33.7183C12.2684 32.8933 7.16671 27.2867 7.16671 20.5ZM31.05 28.6217C29.9617 27.745 28.3117 27.1667 27.1667 27.1667V25.5C27.1667 24.616 26.8155 23.7681 26.1904 23.143C25.5653 22.5179 24.7174 22.1667 23.8334 22.1667H17.1667V17.1667C18.0508 17.1667 18.8986 16.8155 19.5237 16.1904C20.1489 15.5652 20.5 14.7174 20.5 13.8333V12.1667H22.1667C23.0508 12.1667 23.8986 11.8155 24.5237 11.1904C25.1489 10.5652 25.5 9.7174 25.5 8.83334V8.14834C30.38 10.13 33.8334 14.9167 33.8334 20.5C33.8327 23.4411 32.8535 26.2984 31.05 28.6217Z" fill="#fadb5f"/>
</svg>
